HIERARCHY
ROOT Hips
{
  OFFSET -9.65859 97.6334 178.195
  CHANNELS 6 Xposition Yposition Zposition Zrotation Xrotation Yrotation
  JOINT RightUpLeg
  {
    OFFSET -8.9458 -8.66707 0.101652
    CHANNELS 3 Zrotation Xrotation Yrotation
    JOINT RightLeg
    {
      OFFSET 0 -44.4227 1.3727
      CHANNELS 3 Zrotation Xrotation Yrotation
      JOINT RightFoot
      {
        OFFSET 0.253549 -42.0924 -1.46059
        CHANNELS 3 Zrotation Xrotation Yrotation
        JOINT RightToes
        {
          OFFSET 0.04 -4.41509 8.4991
          CHANNELS 3 Zrotation Xrotation Yrotation
          End Site
          {
            OFFSET -0.08 -0.137448 9.77979
          }
        }
      }
    }
  }
  JOINT Spine
  {
    OFFSET 0 11.8905 0
    CHANNELS 3 Zrotation Xrotation Yrotation
    JOINT Spine1
    {
      OFFSET 0 25.6574 0.127663
      CHANNELS 3 Zrotation Xrotation Yrotation
      JOINT HEad
      {
        OFFSET 0 8.73416 0.011341
        CHANNELS 3 Zrotation Xrotation Yrotation
        End Site
        {
          OFFSET -0.29 12.7742 2.51395
        }
      }
      JOINT LeftShoulder1
      {
        OFFSET 8.99 -0.362252 -0.22
        CHANNELS 3 Zrotation Xrotation Yrotation
        JOINT LeftArm
        {
          OFFSET 10.2827 -0.00338 0.322123
          CHANNELS 3 Zrotation Xrotation Yrotation
          JOINT LeftForeArm
          {
            OFFSET 32.7669 0.099144 -1.42434
            CHANNELS 3 Zrotation Xrotation Yrotation
            JOINT LeftHand
            {
              OFFSET 27.5643 0.085362 1.02216
              CHANNELS 3 Zrotation Xrotation Yrotation
              End Site
              {
                OFFSET 16.7443 -0.6 1.50291
              }
            }
          }
        }
      }
      JOINT RightShoulder
      {
        OFFSET -8.99 -0.362252 -0.22
        CHANNELS 3 Zrotation Xrotation Yrotation
        JOINT RightArm
        {
          OFFSET -10.2827 -0.00338 0.322123
          CHANNELS 3 Zrotation Xrotation Yrotation
          JOINT RightForeArm
          {
            OFFSET -32.8971 0.099144 -1.42434
            CHANNELS 3 Zrotation Xrotation Yrotation
            JOINT RightHand
            {
              OFFSET -27.4921 0.085362 1.02216
              CHANNELS 3 Zrotation Xrotation Yrotation
              End Site
              {
                OFFSET -16.6312 -0.6 1.50291
              }
            }
          }
        }
      }
    }
  }
  JOINT LeftUpLeg
  {
    OFFSET 8.9458 -8.66707 0.101652
    CHANNELS 3 Zrotation Xrotation Yrotation
    JOINT LeftLeg
    {
      OFFSET 0 -44.4227 1.3727
      CHANNELS 3 Zrotation Xrotation Yrotation
      JOINT LeftFoot
      {
        OFFSET -0.253549 -42.0924 -1.46059
        CHANNELS 3 Zrotation Xrotation Yrotation
        JOINT LeftToes
        {
          OFFSET -0.04 -4.41509 8.4991
          CHANNELS 3 Zrotation Xrotation Yrotation
          End Site
          {
            OFFSET 0.08 -0.047448 9.77979
          }
        }
      }
    }
  }
}
MOTION
Frames:	21
Frame Time:	0.0166667
32.6406 94.753 184.514 -16.6149 -5.28306 -54.2117 3.73644 -4.63407 2.29392 -6.63743 38.5612 12.9219 -33.6295 1.98754 0.000722335 0.0462048 0.000533403 0.662642 7.2871 7.46797 1.03287 0.013464 -0.00420152 -0.00342644 12.4925 35.8538 23.6588 1.59028e-015 -7.95139e-016 -6.36111e-015 -143.742 -58.3192 -151.775 -55.0111 50.1044 -55.7417 5.12072 17.1132 -2.7409 23.4556 3.44887 12.8672 92.8305 -27.586 92.5067 41.6141 51.4847 60.2355 -6.11494 20.5026 0.136131 3.44152 -19.686 14.7738 7.34025 16.1436 5.84841 -20.1411 -7.60016 -1.83906 -1.18446e-009 1.5602e-007 -4.87131e-009 
34.8115 95.1439 184.064 -16.9299 -5.09296 -53.2557 4.1454 -5.44499 4.80593 -5.05995 40.1028 4.69576 -13.0011 1.64278 0.0463675 0.0462048 0.000533403 0.662642 8.26478 7.85762 0.915606 0.0142003 -0.00323127 -0.00636646 15.0459 36.1951 22.4644 7.95139e-016 1.59028e-015 1.27222e-014 -142.321 -57.8978 -149.443 -64.0273 50.3945 -50.9915 7.79062 20.6263 -1.75263 24.2236 3.8853 11.5374 95.2834 -27.0659 91.7121 43.655 53.6845 58.8618 -8.04094 19.4548 2.35486 3.68891 -20.0397 16.5291 6.90984 17.8683 4.05018 -17.9342 -6.03502 -1.3851 -1.18448e-009 1.5602e-007 -4.87131e-009 
36.9937 95.3077 183.692 -17.363 -4.92982 -52.4445 5.02806 -4.99594 6.81072 -3.2657 39.4095 -2.6564 -6.03624 0.693422 -0.190871 0.0462048 0.000533403 0.662642 9.29994 8.32276 0.817306 0.0144002 -0.00208308 -0.00894761 17.3982 36.4785 21.4055 0 0 -1.59028e-014 -134.921 -57.0351 -139.159 -71.2131 51.0074 -47.9152 2.16606 10.5034 -4.43971 25.1017 4.33802 10.0696 96.6022 -26.599 90.4388 45.2851 55.1563 58.0347 -6.20992 20.4784 -0.475844 4.2243 -21.4182 18.1713 6.98726 21.7529 2.04121 -15.9653 -4.8982 -1.07295 -1.18447e-009 1.5602e-007 -4.87131e-009 
39.1819 95.4433 183.396 -17.9146 -4.77859 -51.8175 5.3855 -4.22722 8.67136 -2.00933 37.8342 -8.81191 5.93855 0.148417 -0.0613094 0.0462048 0.000533403 0.662642 10.3935 8.87495 0.737895 0.0139 -0.000688984 -0.0113125 19.5331 36.7228 20.5079 -1.59028e-015 -7.95139e-016 -0 -129.985 -55.8888 -132.319 -74.8378 50.8659 -46.4751 11.1124 27.7831 -0.436602 26.0008 4.73919 8.46534 97.123 -26.2687 88.736 46.4869 56.0563 57.809 -7.37083 19.9991 0.669416 5.08695 -23.3064 19.7622 7.57181 26.5186 -0.170122 -14.2658 -3.83842 -0.877776 -1.18447e-009 1.5602e-007 -4.87132e-009 
41.3448 95.5114 183.193 -18.5709 -4.61763 -51.3946 6.84961 -3.24874 9.99679 -1.13367 36.8297 -13.338 1.13106 -0.657794 0.0886213 0.0462048 0.000533403 0.662642 11.5378 9.49735 0.675465 0.0113081 0.00101898 -0.0132404 21.4394 36.9428 19.7809 7.95139e-016 7.95139e-016 3.18055e-015 -121.37 -53.1235 -121.043 -70.5414 52.2408 -49.7908 -2.75058 4.18694 -6.41584 26.8337 5.06888 6.79254 97.1341 -26.1097 86.679 47.2722 56.5504 58.0139 -6.20701 20.7093 -1.18758 6.088 -25.7204 21.2713 9.22354 31.9083 -2.99095 -13.1099 -3.00815 -0.790225 -1.18446e-009 1.5602e-007 -4.87131e-009 
43.4562 95.5623 183.055 -19.2979 -4.41978 -51.1833 7.63646 -2.233 11.2911 -0.500104 36.1674 -16.5737 4.66945 -1.0169 0.152691 0.0462048 0.000533403 0.662642 12.6894 10.185 0.616015 0.00409804 0.00370892 -0.0142204 23.1079 37.1164 19.2689 0 0 -3.18055e-015 -116.489 -50.7716 -114.65 -67.3619 52.4206 -52.364 3.15102 14.4182 -6.18666 27.3106 5.28952 5.33077 95.7607 -30.5676 84.7747 49.7679 57.1924 60.4614 -6.84085 20.4952 -0.538055 7.0736 -28.3299 22.6352 12.0599 37.1022 -6.70227 -12.5473 -2.3214 -0.774347 -1.18447e-009 1.5602e-007 -4.87131e-009 
45.5478 95.5809 182.97 -20.0578 -4.1613 -51.192 8.27291 -1.49394 11.2601 -0.483404 35.7104 -17.4272 4.20535 -1.47526 0.158472 0.0462048 0.000533403 0.662642 14.4648 11.8429 -0.302322 0.0526717 0.0771043 -0.0739071 22.9408 36.6332 20.4273 7.95139e-016 1.59028e-015 3.18055e-015 -115.635 -49.2044 -112.632 -65.3784 52.4648 -54.0155 -0.754333 10.231 -4.49493 26.832 4.94871 4.79144 94.5112 -32.7481 83.331 47.4356 55.6108 60.7073 -5.04206 19.796 2.82295 8.13988 -30.8301 22.7529 14.7642 41.904 -9.96224 -12.4778 -1.78137 -0.790508 -1.18447e-009 1.5602e-007 -4.87131e-009 
47.6997 95.6062 182.892 -20.8099 -3.82554 -51.4407 7.94137 -0.824676 10.3513 -1.67199 33.6777 -15.7399 13.1146 -2.07886 0.410567 0.0462048 0.000533403 0.662642 16.6382 14.1842 -2.1147 0.0393505 0.0665435 -0.085456 21.4427 35.8031 22.9964 0 7.95139e-016 -0 -117.017 -48.4893 -113.246 -64.167 52.443 -55.059 2.71313 15.8665 -4.6405 25.7546 4.37587 4.91046 93.4442 -33.4043 82.2114 46.2154 54.8141 61.2622 -7.60932 24.7974 -11.544 8.92812 -32.6618 21.6026 16.6881 45.5924 -12.4365 -12.7762 -1.32052 -0.808012 -1.18447e-009 1.5602e-007 -4.87132e-009 
49.8732 95.5801 182.83 -21.4637 -3.44313 -51.9199 7.19165 -0.358324 8.52471 -3.13982 32.0554 -12.6979 22.0398 -2.33672 0.888055 0.0462048 0.000533403 0.662642 18.9899 16.9197 -4.79132 0.0262302 0.0514233 -0.0883145 18.8319 34.652 26.8488 7.95139e-016 2.38542e-015 2.54444e-014 -120.251 -48.8317 -116.078 -63.9772 52.4583 -55.7272 0.579242 13.3408 -3.4438 24.2361 3.66755 5.93001 92.5728 -33.3145 81.4099 45.6005 54.3943 61.9242 -4.69743 19.9779 3.12174 8.47763 -34.1455 19.281 21.5159 50.4973 -17.8015 0.0571156 -0.508244 0.171522 -1.18446e-009 1.5602e-007 -4.87132e-009 
52.2978 95.7744 182.74 -20.7255 -2.7098 -54.1981 7.2578 -2.11467 7.2961 -4.99389 30.8616 -8.86063 10.0093 -3.8053 0.776436 0.0462048 0.000533403 0.662642 20.2079 19.3228 -6.23774 0.0161201 0.0418632 -0.0885536 15.3988 33.1448 31.804 7.95139e-016 7.95139e-016 6.36111e-015 -124.851 -49.6588 -120.683 -64.1203 52.4591 -56.1185 2.85143 16.6309 -3.43602 22.488 2.89187 7.77349 91.8405 -32.81 80.9088 45.3256 54.0536 62.5286 -4.41359 31.0158 -24.804 8.23292 -34.9503 18.1552 23.5548 52.9953 -21.004 12.7661 0.415743 0.308898 -1.18446e-009 1.5602e-007 -4.87131e-009 
54.9483 96.1088 182.638 -18.8042 -1.77535 -57.9865 6.6598 -4.52511 6.81395 -6.17203 29.0401 -4.32811 -2.4318 -4.36296 -0.164603 0.0462048 0.000533403 0.662642 20.2079 21.4283 -6.65422 0.00768076 0.0352237 -0.0825129 11.4788 31.2036 37.601 7.95139e-016 7.95139e-016 6.36111e-015 -130.67 -50.7173 -126.869 -64.4606 52.5141 -56.248 1.89236 15.281 -2.51476 21.2434 4.05354 0.102145 91.3753 -21.6186 82.6197 45.1786 53.8229 62.9885 -9.0622 25.0512 -3.54036 11.1645 -35.926 18.6197 29.3169 57.1211 -28.7589 -4.69679 -0.586423 -1.11505 -1.18446e-009 1.5602e-007 -4.87132e-009 
57.757 96.3502 182.549 -15.8864 -0.776873 -63.0731 3.85714 -8.5964 7.14567 -7.11104 27.3852 0.575633 13.7741 -5.09549 0.347259 0.0462048 0.000533403 0.662642 18.8111 22.9336 -6.51704 0.00133112 0.025854 -0.078952 6.99065 27.6528 44.0393 4.41391e-032 -7.95139e-016 3.18055e-015 -137.704 -52.2274 -134.866 -64.9161 52.554 -56.2226 3.50231 17.3086 -2.45588 19.5234 3.44392 5.07358 89.2455 -25.5572 82.467 43.9115 53.2098 62.6886 -6.73527 25.1498 -12.6996 14.3342 -36.0181 19.8384 29.9463 57.5541 -32.6056 -21.8428 0.392381 -1.55845 -1.18446e-009 1.5602e-007 -4.87132e-009 
60.6437 96.5098 182.529 -12.1347 0.164727 -69.2878 3.00674 -14.2888 7.5185 -7.37518 26.6907 4.16635 5.09454 -6.96571 0.286187 0.0462048 0.000533403 0.662642 16.2685 23.2502 -4.23884 -0.011288 -0.0283082 0.0232524 3.45106 22.873 48.7067 -1.32417e-031 -2.38542e-015 -3.18055e-015 -144.357 -53.3521 -142.489 -65.8703 52.3999 -56.157 3.16297 16.6288 -1.6978 18.0662 3.03119 8.6835 87.9174 -27.3979 82.4271 43.4738 52.9834 62.787 -9.52981 19.662 2.21479 17.2405 -35.146 21.5518 25.3947 54.6923 -31.6065 -38.5039 1.49995 -1.34078 -1.18446e-009 1.5602e-007 -4.87131e-009 
63.5206 96.944 182.442 -8.98642 0.726546 -74.7936 0.730345 -18.6746 6.06644 -6.24369 24.2718 4.77049 12.4986 -6.34061 0.648051 0.0462048 0.000533403 0.662642 13.9546 23.2134 -2.31591 -0.0112855 -0.0257081 0.0252027 0.640222 17.051 52.0368 7.95139e-016 -1.19271e-015 -6.36111e-015 -150.335 -53.9104 -149.382 -66.7138 52.2316 -56.0277 4.26186 17.8457 -1.47855 16.8142 2.76878 11.4683 87.1461 -28.0436 82.5443 43.4534 52.9313 62.8771 -7.78675 20.9752 -5.0596 17.634 -34.7552 21.2231 17.6697 52.3683 -27.9388 -32.2294 2.28523 -0.337704 -1.18446e-009 1.5602e-007 -4.87131e-009 
66.3336 97.4473 182.44 -6.3555 1.01161 -79.6419 -0.621508 -22.3229 3.05267 -5.0278 22.6858 3.4623 7.15478 -6.81516 0.508235 0.0462048 0.000533403 0.662642 11.8532 22.8854 -0.713336 -0.0112871 -0.0233907 0.0236873 -1.65676 10.4932 54.1104 7.95139e-016 -1.78906e-015 -0 -155.269 -54.0075 -155.073 -67.3861 52.1566 -55.7091 4.20005 17.4195 -0.853434 15.7056 2.65121 13.4501 86.7941 -27.999 82.8325 43.7475 52.959 63.188 -9.16418 18.5496 2.7378 17.3399 -33.4918 19.4148 10.0833 47.8099 -22.7784 -25.8728 1.81445 -0.390057 -1.18447e-009 1.5602e-007 -4.87131e-009 
69.012 97.8695 182.521 -4.1888 1.08742 -83.8508 -2.90865 -25.2029 -1.5533 -3.78116 21.4627 1.88257 12.3483 -4.99453 0.755803 0.0462048 0.000533403 0.662642 9.95474 22.3245 0.585481 -0.0112893 -0.0207285 0.0206867 -3.08889 4.71813 55.6664 2.38542e-015 1.59028e-015 -1.59028e-015 -155.962 -51.1809 -154.748 -65.8836 54.694 -54.4134 4.81852 17.9953 -0.59806 14.7723 2.67862 14.9005 86.6907 -27.6971 83.2495 44.1656 52.9607 63.4031 -7.89212 19.7682 -2.40938 16.6466 -31.6767 16.4998 4.35055 41.8192 -17.8088 -19.5 0.865824 -0.471039 -1.18447e-009 1.5602e-007 -4.87131e-009 
71.4663 98.2951 182.65 -2.45302 1.01311 -87.4194 -4.16261 -27.4481 -5.99154 -3.47499 22.6489 2.33519 9.80713 -4.38447 0.587479 0.0462048 0.000533403 0.662642 8.26405 21.6145 1.55754 -0.0112916 -0.0167486 0.017686 -3.94684 -0.271226 56.8643 1.59028e-015 1.98785e-016 -7.95139e-016 -157.414 -49.5906 -155.757 -65.5497 55.8726 -53.4742 4.60202 17.5529 -0.0157939 14.0371 2.85238 15.835 86.7247 -27.2544 83.7574 44.6878 52.9122 63.6635 -8.72518 18.5793 1.8527 15.651 -29.3311 12.7759 1.74838 36.0864 -12.9125 -13.777 -0.184337 -0.454211 -1.18446e-009 1.5602e-007 -4.87131e-009 
73.625 98.6619 182.751 -1.12073 0.828771 -90.3064 -5.16097 -29.7133 -10.3328 -3.48171 25.117 3.85865 7.1597 -3.52738 0.259509 0.0462048 0.000533403 0.662642 6.78534 20.8346 2.15225 -0.0112928 -0.0128925 0.017686 -4.44041 -4.49307 57.7729 -1.65521e-032 1.19271e-015 7.95139e-016 -158.999 -48.7997 -156.98 -65.9263 56.372 -52.6706 4.69727 17.684 0.411518 13.5515 3.20085 16.4634 86.8032 -26.8819 84.2799 45.2327 52.8194 63.8109 -7.88518 19.2565 -1.51455 14.2295 -26.2644 8.73597 0.755312 33.4421 -4.96349 -3.28211 -1.25114 0.03759 -1.18447e-009 1.5602e-007 -4.87131e-009 
75.5272 98.8109 182.829 -0.159609 0.565526 -92.451 -6.05306 -32.5199 -14.5965 -4.18568 29.0044 6.80638 4.49446 -3.07951 0.0629795 0.0462048 0.000533403 0.662642 5.52296 20.0301 2.3217 -0.0112939 -0.00914881 0.017686 -4.73138 -7.95635 58.4063 -7.95139e-016 -1.3418e-015 -0 -158.469 -47.5082 -152.662 -68.0902 55.8975 -50.072 10.8377 3.95272 0.822604 13.3155 3.74557 16.8553 86.8954 -26.685 84.7399 45.8109 52.7249 63.9614 -8.44484 18.4464 0.976176 14.0378 -22.9294 4.96731 -0.194885 32.6744 3.496 -10.3213 -1.0699 -0.54246 -1.18446e-009 1.5602e-007 -4.87131e-009 
77.2807 98.9206 182.788 0.464157 0.258395 -93.8962 -7.01637 -35.4317 -17.6694 -4.90147 33.1624 9.6623 1.98664 -2.484 -0.0799329 0.0462048 0.000533403 0.662642 4.44027 19.2591 2.12096 -0.011295 -0.0056189 0.017686 -4.93265 -10.6937 58.772 -1.59028e-015 -2.43822e-015 4.96962e-017 -158.763 -47.1871 -150.388 -69.6879 55.5418 -48.6307 2.90745 22.306 0.93096 13.2992 4.45773 17.114 87.0097 -26.7205 85.0561 46.389 52.677 64.0426 -7.88683 18.702 -1.00803 13.3457 -19.54 2.41273 -1.08067 31.5027 9.53278 -8.35495 -1.70518 -0.355248 -1.18446e-009 1.5602e-007 -4.87131e-009 
78.8765 98.8708 182.644 0.787537 -0.0683241 -94.7306 -7.98251 -38.2348 -19.5833 -5.73845 37.551 12.2476 -0.123868 -1.97702 -0.17325 0.0462048 0.000533403 0.662642 3.29687 18.1997 1.9142 -0.0112969 0.000501001 0.017686 -4.9708 -12.3656 58.7008 -7.15536e-033 2.06239e-015 1.98785e-016 -158.786 -47.8969 -148.608 -70.8206 55.2131 -48.0029 7.0805 13.1689 1.09105 13.6533 5.57397 16.9552 87.174 -26.957 85.1883 46.9901 52.7084 64.1379 -8.15459 18.1387 0.615787 13.0343 -16.3805 1.01751 -1.66497 29.8289 13.3023 -10.1808 -2.06962 -0.521022 -1.18447e-009 1.5602e-007 -4.87131e-009 
